<svg width="104" height="103" viewBox="0 0 104 103" fill="none" xmlns="http://www.w3.org/2000/svg">
<circle cx="51.7734" cy="51.5" r="49.8906" stroke="#D7181F" stroke-width="3.21875"/>
<path d="M59.0613 49.2268L46.9884 46.0482C45.591 45.6861 44.6185 44.5093 44.6185 43.2017C44.6185 41.5621 46.0941 40.2344 47.9162 40.2344H55.3276C56.6914 40.2344 58.0328 40.6065 59.1507 41.2905C59.8326 41.7029 60.7493 41.6023 61.3305 41.0894L65.2207 37.6694C66.0144 36.9754 65.9026 35.8187 65.0195 35.2051C62.2807 33.2738 58.8601 32.1976 55.35 32.1875V27.3594C55.35 26.4742 54.5451 25.75 53.5614 25.75H49.9842C49.0005 25.75 48.1957 26.4742 48.1957 27.3594V32.1875H47.9162C40.7954 32.1875 35.072 37.6896 35.7315 44.2176C36.201 48.8546 40.1359 52.6266 45.0992 53.9342L56.5573 56.9518C57.9546 57.3239 58.9271 58.4907 58.9271 59.7983C58.9271 61.4379 57.4516 62.7656 55.6294 62.7656H48.218C46.8542 62.7656 45.5128 62.3935 44.3949 61.7095C43.713 61.2971 42.7964 61.3977 42.2151 61.9106L38.3249 65.3306C37.5313 66.0246 37.6431 67.1813 38.5262 67.7949C41.2649 69.7262 44.6856 70.8024 48.1957 70.8125V75.6406C48.1957 76.5258 49.0005 77.25 49.9842 77.25H53.5614C54.5451 77.25 55.35 76.5258 55.35 75.6406V70.7924C60.5592 70.7019 65.4443 67.9156 67.1658 63.4798C69.5692 57.2837 65.5337 50.9267 59.0613 49.2268Z" fill="#D7181F"/>
</svg>
