<svg width="104" height="103" viewBox="0 0 104 103" fill="none" xmlns="http://www.w3.org/2000/svg">
<circle cx="52.3203" cy="51.5" r="49.8906" stroke="#D7181F" stroke-width="3.21875"/>
<path d="M81.3695 63.2686H79.8406V52.735C79.8406 51.4975 79.3533 50.3087 78.4933 49.4317L68.9472 39.6972C68.0872 38.8202 66.9214 38.3232 65.7078 38.3232H61.4937V33.646C61.4937 31.0638 59.4393 28.9688 56.907 28.9688H32.4445C29.9123 28.9688 27.8578 31.0638 27.8578 33.646V38.3232H22.5066C22.0862 38.3232 21.7422 38.674 21.7422 39.1028V40.6619C21.7422 41.0906 22.0862 41.4414 22.5066 41.4414H48.498C48.9185 41.4414 49.2625 41.7922 49.2625 42.2209V43.78C49.2625 44.2088 48.9185 44.5596 48.498 44.5596H25.5645C25.144 44.5596 24.8 44.9104 24.8 45.3391V46.8982C24.8 47.3269 25.144 47.6777 25.5645 47.6777H45.4402C45.8607 47.6777 46.2047 48.0285 46.2047 48.4573V50.0164C46.2047 50.4451 45.8607 50.7959 45.4402 50.7959H22.5066C22.0862 50.7959 21.7422 51.1467 21.7422 51.5754V53.1345C21.7422 53.5633 22.0862 53.9141 22.5066 53.9141H42.3824C42.8029 53.9141 43.1469 54.2649 43.1469 54.6936V56.2527C43.1469 56.6814 42.8029 57.0322 42.3824 57.0322H27.8578V69.5049C27.8578 74.6693 31.9667 78.8594 37.0312 78.8594C42.0958 78.8594 46.2047 74.6693 46.2047 69.5049H58.4359C58.4359 74.6693 62.5449 78.8594 67.6094 78.8594C72.6739 78.8594 76.7828 74.6693 76.7828 69.5049H81.3695C82.2104 69.5049 82.8984 68.8033 82.8984 67.9458V64.8276C82.8984 63.9701 82.2104 63.2686 81.3695 63.2686ZM37.0312 74.1821C34.499 74.1821 32.4445 72.0871 32.4445 69.5049C32.4445 66.9227 34.499 64.8276 37.0312 64.8276C39.5635 64.8276 41.618 66.9227 41.618 69.5049C41.618 72.0871 39.5635 74.1821 37.0312 74.1821ZM67.6094 74.1821C65.0771 74.1821 63.0227 72.0871 63.0227 69.5049C63.0227 66.9227 65.0771 64.8276 67.6094 64.8276C70.1416 64.8276 72.1961 66.9227 72.1961 69.5049C72.1961 72.0871 70.1416 74.1821 67.6094 74.1821ZM75.2539 53.9141H61.4937V43.0005H65.7078L75.2539 52.735V53.9141Z" fill="#D7181F"/>
</svg>
