<svg width="104" height="103" viewBox="0 0 104 103" fill="none" xmlns="http://www.w3.org/2000/svg">
<circle cx="52.2266" cy="51.5" r="49.8906" stroke="#D7181F" stroke-width="3.21875"/>
<path d="M23.2578 70.6401C23.2578 73.4008 25.4645 75.6406 28.1843 75.6406H77.449C80.1689 75.6406 82.3755 73.4008 82.3755 70.6401V52.3047H23.2578V70.6401ZM42.9637 63.5559C42.9637 62.8684 43.5179 62.3058 44.1953 62.3058H58.1537C58.8311 62.3058 59.3853 62.8684 59.3853 63.5559V67.7231C59.3853 68.4107 58.8311 68.9732 58.1537 68.9732H44.1953C43.5179 68.9732 42.9637 68.4107 42.9637 67.7231V63.5559ZM29.8264 63.5559C29.8264 62.8684 30.3807 62.3058 31.0581 62.3058H38.4478C39.1252 62.3058 39.6794 62.8684 39.6794 63.5559V67.7231C39.6794 68.4107 39.1252 68.9732 38.4478 68.9732H31.0581C30.3807 68.9732 29.8264 68.4107 29.8264 67.7231V63.5559ZM82.3755 33.9693V38.9699H23.2578V33.9693C23.2578 31.2086 25.4645 28.9688 28.1843 28.9688H77.449C80.1689 28.9688 82.3755 31.2086 82.3755 33.9693Z" fill="#D7181F"/>
</svg>
