<svg width="104" height="103" viewBox="0 0 104 103" fill="none" xmlns="http://www.w3.org/2000/svg">
<circle cx="51.6797" cy="51.5" r="49.8906" stroke="#D7181F" stroke-width="3.21875"/>
<path d="M40.9242 54.8912H39.1029C35.0789 54.8912 31.8176 58.1582 31.8176 62.1901V69.4481C31.8176 73.4789 35.0789 76.7471 39.1029 76.7471H40.9242C42.9356 76.7471 44.5668 75.1124 44.5668 73.0976V58.5407C44.5668 56.5247 42.9356 54.8912 40.9242 54.8912ZM64.6014 54.8912H62.7801C60.7686 54.8912 59.1374 56.5247 59.1374 58.5407V73.0976C59.1374 75.1124 60.7686 76.7471 62.7801 76.7471H64.6014C68.6254 76.7471 71.8867 73.4789 71.8867 69.4481V62.1901C71.8867 58.1593 68.6254 54.8912 64.6014 54.8912ZM51.8521 25.75C35.5638 25.75 23.2312 39.3109 22.7109 54.8912V67.6405C22.7109 68.6467 23.526 69.4618 24.5323 69.4618H26.3536C27.3599 69.4618 28.1749 68.6467 28.1749 67.6405V54.8912C28.1749 41.838 38.7989 31.2367 51.8521 31.2345C64.9053 31.2367 75.5293 41.838 75.5293 54.8912V67.6405C75.5293 68.6467 76.3444 69.4618 77.3507 69.4618H79.172C80.1783 69.4618 80.9933 68.6467 80.9933 67.6405V54.8912C80.4731 39.3109 68.1404 25.75 51.8521 25.75Z" fill="#D7181F"/>
</svg>
